simulate all controllers
version=1
nRows=4
nColumns=195
inDegrees=yes
endheader
time	/jointset/ground_platform/platform_rx/value	/jointset/ground_platform/platform_rx/speed	/jointset/ground_platform/platform_ry/value	/jointset/ground_platform/platform_ry/speed	/jointset/ground_platform/platform_rz/value	/jointset/ground_platform/platform_rz/speed	/jointset/ground_platform/platform_ty/value	/jointset/ground_platform/platform_ty/speed	/jointset/ground_pelvis/pelvis_tilt/value	/jointset/ground_pelvis/pelvis_tilt/speed	/jointset/ground_pelvis/pelvis_list/value	/jointset/ground_pelvis/pelvis_list/speed	/jointset/ground_pelvis/pelvis_rotation/value	/jointset/ground_pelvis/pelvis_rotation/speed	/jointset/ground_pelvis/pelvis_tx/value	/jointset/ground_pelvis/pelvis_tx/speed	/jointset/ground_pelvis/pelvis_ty/value	/jointset/ground_pelvis/pelvis_ty/speed	/jointset/ground_pelvis/pelvis_tz/value	/jointset/ground_pelvis/pelvis_tz/speed	/jointset/hip_r/hip_flexion_r/value	/jointset/hip_r/hip_flexion_r/speed	/jointset/hip_r/hip_adduction_r/value	/jointset/hip_r/hip_adduction_r/speed	/jointset/hip_r/hip_rotation_r/value	/jointset/hip_r/hip_rotation_r/speed	/jointset/knee_r/knee_angle_r/value	/jointset/knee_r/knee_angle_r/speed	/jointset/ankle_r/ankle_angle_r/value	/jointset/ankle_r/ankle_angle_r/speed	/jointset/subtalar_r/subtalar_angle_r/value	/jointset/subtalar_r/subtalar_angle_r/speed	/jointset/mtp_r/mtp_angle_r/value	/jointset/mtp_r/mtp_angle_r/speed	/jointset/hip_l/hip_flexion_l/value	/jointset/hip_l/hip_flexion_l/speed	/jointset/hip_l/hip_adduction_l/value	/jointset/hip_l/hip_adduction_l/speed	/jointset/hip_l/hip_rotation_l/value	/jointset/hip_l/hip_rotation_l/speed	/jointset/knee_l/knee_angle_l/value	/jointset/knee_l/knee_angle_l/speed	/jointset/ankle_l/ankle_angle_l/value	/jointset/ankle_l/ankle_angle_l/speed	/jointset/subtalar_l/subtalar_angle_l/value	/jointset/subtalar_l/subtalar_angle_l/speed	/jointset/mtp_l/mtp_angle_l/value	/jointset/mtp_l/mtp_angle_l/speed	/jointset/back/lumbar_extension/value	/jointset/back/lumbar_extension/speed	/jointset/back/lumbar_bending/value	/jointset/back/lumbar_bending/speed	/jointset/back/lumbar_rotation/value	/jointset/back/lumbar_rotation/speed	/forceset/glut_med1_r/activation	/forceset/glut_med1_r/fiber_length	/forceset/glut_med2_r/activation	/forceset/glut_med2_r/fiber_length	/forceset/glut_med3_r/activation	/forceset/glut_med3_r/fiber_length	/forceset/bifemlh_r/activation	/forceset/bifemlh_r/fiber_length	/forceset/bifemsh_r/activation	/forceset/bifemsh_r/fiber_length	/forceset/sar_r/activation	/forceset/sar_r/fiber_length	/forceset/add_mag2_r/activation	/forceset/add_mag2_r/fiber_length	/forceset/tfl_r/activation	/forceset/tfl_r/fiber_length	/forceset/pect_r/activation	/forceset/pect_r/fiber_length	/forceset/grac_r/activation	/forceset/grac_r/fiber_length	/forceset/glut_max1_r/activation	/forceset/glut_max1_r/fiber_length	/forceset/glut_max2_r/activation	/forceset/glut_max2_r/fiber_length	/forceset/glut_max3_r/activation	/forceset/glut_max3_r/fiber_length	/forceset/iliacus_r/activation	/forceset/iliacus_r/fiber_length	/forceset/psoas_r/activation	/forceset/psoas_r/fiber_length	/forceset/quad_fem_r/activation	/forceset/quad_fem_r/fiber_length	/forceset/gem_r/activation	/forceset/gem_r/fiber_length	/forceset/peri_r/activation	/forceset/peri_r/fiber_length	/forceset/rect_fem_r/activation	/forceset/rect_fem_r/fiber_length	/forceset/vas_int_r/activation	/forceset/vas_int_r/fiber_length	/forceset/med_gas_r/activation	/forceset/med_gas_r/fiber_length	/forceset/lat_gas_r/activation	/forceset/lat_gas_r/fiber_length	/forceset/soleus_r/activation	/forceset/soleus_r/fiber_length	/forceset/tib_post_r/activation	/forceset/tib_post_r/fiber_length	/forceset/flex_dig_r/activation	/forceset/flex_dig_r/fiber_length	/forceset/flex_hal_r/activation	/forceset/flex_hal_r/fiber_length	/forceset/tib_ant_r/activation	/forceset/tib_ant_r/fiber_length	/forceset/per_brev_r/activation	/forceset/per_brev_r/fiber_length	/forceset/per_long_r/activation	/forceset/per_long_r/fiber_length	/forceset/per_tert_r/activation	/forceset/per_tert_r/fiber_length	/forceset/ext_dig_r/activation	/forceset/ext_dig_r/fiber_length	/forceset/ext_hal_r/activation	/forceset/ext_hal_r/fiber_length	/forceset/glut_med1_l/activation	/forceset/glut_med1_l/fiber_length	/forceset/glut_med2_l/activation	/forceset/glut_med2_l/fiber_length	/forceset/glut_med3_l/activation	/forceset/glut_med3_l/fiber_length	/forceset/bifemlh_l/activation	/forceset/bifemlh_l/fiber_length	/forceset/bifemsh_l/activation	/forceset/bifemsh_l/fiber_length	/forceset/sar_l/activation	/forceset/sar_l/fiber_length	/forceset/add_mag2_l/activation	/forceset/add_mag2_l/fiber_length	/forceset/tfl_l/activation	/forceset/tfl_l/fiber_length	/forceset/pect_l/activation	/forceset/pect_l/fiber_length	/forceset/grac_l/activation	/forceset/grac_l/fiber_length	/forceset/glut_max1_l/activation	/forceset/glut_max1_l/fiber_length	/forceset/glut_max2_l/activation	/forceset/glut_max2_l/fiber_length	/forceset/glut_max3_l/activation	/forceset/glut_max3_l/fiber_length	/forceset/iliacus_l/activation	/forceset/iliacus_l/fiber_length	/forceset/psoas_l/activation	/forceset/psoas_l/fiber_length	/forceset/quad_fem_l/activation	/forceset/quad_fem_l/fiber_length	/forceset/gem_l/activation	/forceset/gem_l/fiber_length	/forceset/peri_l/activation	/forceset/peri_l/fiber_length	/forceset/rect_fem_l/activation	/forceset/rect_fem_l/fiber_length	/forceset/vas_int_l/activation	/forceset/vas_int_l/fiber_length	/forceset/med_gas_l/activation	/forceset/med_gas_l/fiber_length	/forceset/lat_gas_l/activation	/forceset/lat_gas_l/fiber_length	/forceset/soleus_l/activation	/forceset/soleus_l/fiber_length	/forceset/tib_post_l/activation	/forceset/tib_post_l/fiber_length	/forceset/flex_dig_l/activation	/forceset/flex_dig_l/fiber_length	/forceset/flex_hal_l/activation	/forceset/flex_hal_l/fiber_length	/forceset/tib_ant_l/activation	/forceset/tib_ant_l/fiber_length	/forceset/per_brev_l/activation	/forceset/per_brev_l/fiber_length	/forceset/per_long_l/activation	/forceset/per_long_l/fiber_length	/forceset/per_tert_l/activation	/forceset/per_tert_l/fiber_length	/forceset/ext_dig_l/activation	/forceset/ext_dig_l/fiber_length	/forceset/ext_hal_l/activation	/forceset/ext_hal_l/fiber_length	/forceset/ercspn_r/activation	/forceset/ercspn_r/fiber_length	/forceset/ercspn_l/activation	/forceset/ercspn_l/fiber_length	/forceset/intobl_r/activation	/forceset/intobl_r/fiber_length	/forceset/intobl_l/activation	/forceset/intobl_l/fiber_length	/forceset/extobl_r/activation	/forceset/extobl_r/fiber_length	/forceset/extobl_l/activation	/forceset/extobl_l/fiber_length
      0.33585702	     20.00000000	      0.00000000	     -0.00000000	     -0.00000000	      0.00000000	     -0.00000000	      0.25000000	      0.00000000	     -8.52896733	     65.63428063	     -0.61380958	   -285.80976004	      0.34782831	   -246.16118580	      0.04967830	     -0.43551957	      1.12626309	     -2.35488276	     -0.00203502	      0.09464603	     16.74569073	    794.50747838	     -1.36412658	    206.89771144	     -2.47343073	   -135.16501641	    -25.23165197	  -1640.54184577	     20.43936725	    890.54140962	      3.36530388	    682.61022120	     -0.00000000	     -0.00000000	    -19.99999998	      0.00000000	     10.00000028	      0.00000000	      4.99999985	      0.00000000	   -119.99999986	     -0.00000000	     11.49999977	     -0.00000000	     -0.03000064	      0.00000000	      0.00000000	      0.00000000	     -4.31729452	   -149.64404067	      0.86532873	    359.57384134	      0.82696960	    289.20425837	      0.24899091	      0.04609875	      0.15620304	      0.08270238	      0.16669180	      0.06456113	     -0.01777967	      0.09759126	     -0.01603126	      0.16084495	     -0.01182286	      0.45089834	      0.03022207	      0.08009055	      0.02154537	      0.10088070	      0.00363264	      0.06522025	     -0.01727913	      0.30701668	      0.12240163	      0.08563656	      0.12557146	      0.09513429	      0.13858535	      0.10998042	      0.01047796	      0.09659665	      0.00991336	      0.09091973	     -0.01779948	      0.04540855	     -0.01766203	      0.02410626	      0.14180771	      0.02256235	      0.19697730	      0.10473077	      0.30099339	      0.08366891	      0.04414558	      0.09725703	      0.05133757	      0.07001830	      0.21570847	      0.08931818	      0.21437287	      0.03328317	      0.21203009	      0.02913491	      0.23376821	      0.03830933	      0.21517604	      0.06401675	      0.75452501	      0.04749934	      0.76714807	      0.04557568	      0.62414942	      0.06970143	      0.62142111	      0.07744168	      0.22126762	      0.08748877	     -0.01779948	      0.04646954	     -0.01779948	      0.07924345	     -0.01779948	      0.06066849	     -0.01779948	      0.02207317	     -0.01779948	      0.12238178	     -0.01779948	      0.45556126	     -0.01779948	      0.05828642	     -0.01779948	      0.13391495	     -0.01779948	      0.07307389	     -0.01779948	      0.24301553	     -0.01779948	      0.06638073	     -0.01779948	      0.06554424	     -0.01779948	      0.05770037	     -0.01779948	      0.11895704	     -0.01779948	      0.11276383	     -0.01779948	      0.04385542	     -0.01779948	      0.02477863	     -0.01779948	      0.02332641	     -0.01779948	      0.18252185	     -0.01779948	      0.13945923	     -0.01779948	      0.06773757	     -0.01779948	      0.04190348	     -0.01779948	      0.08593352	     -0.01779948	      0.03561975	     -0.01779948	      0.03422548	     -0.01779948	      0.04262072	     -0.01779948	      0.07211219	     -0.01779948	      0.05030460	     -0.01779948	      0.05155965	     -0.01779948	      0.07464108	     -0.01779948	      0.08888359	     -0.01779948	      0.09641128	      0.00217501	      0.12209321	      0.10004953	      0.12307513	     -0.01779948	      0.09468026	      0.07542823	      0.09500436	     -0.01779948	      0.12748446	      0.08380713	      0.12884528
      0.33593044	     20.00000000	      0.00000000	     -0.00000000	     -0.00000000	      0.00000000	      0.00000000	      0.25000000	      0.00000000	     -8.52413352	     66.02632498	     -0.63484543	   -287.14409946	      0.32971429	   -247.20937899	      0.04964624	     -0.43770802	      1.12609038	     -2.34950350	     -0.00202807	      0.09457681	     16.80417222	    798.34840196	     -1.34890309	    207.74400446	     -2.48325461	   -132.43149083	    -25.35237614	  -1647.62501204	     20.50453037	    884.34217267	      3.41539858	    681.83923383	     -0.00000000	     -0.00000000	    -19.99999998	      0.00000000	     10.00000028	      0.00000000	      4.99999985	      0.00000000	   -119.99999986	     -0.00000000	     11.49999977	     -0.00000000	     -0.03000064	      0.00000000	      0.00000000	      0.00000000	     -4.32832207	   -150.71630669	      0.89179097	    361.17850246	      0.84825405	    290.51973566	      0.25193474	      0.04611834	      0.15933607	      0.08273005	      0.17099094	      0.06458486	     -0.01778913	      0.09758459	     -0.01604071	      0.16081224	     -0.01183232	      0.45082655	      0.03168285	      0.08008961	      0.02152433	      0.10087975	      0.00362319	      0.06520135	     -0.01728859	      0.30695012	      0.12540539	      0.08564599	      0.12874242	      0.09514627	      0.14218441	      0.10998284	      0.01046805	      0.09657772	      0.00990391	      0.09090082	     -0.01780893	      0.04539834	     -0.01767148	      0.02410065	      0.14702602	      0.02255838	      0.20063314	      0.10472477	      0.30660306	      0.08374265	      0.04409972	      0.09725292	      0.05128323	      0.07001571	      0.21880093	      0.08931592	      0.21435121	      0.03328306	      0.21201204	      0.02913485	      0.23402668	      0.03830939	      0.21515314	      0.06399885	      0.75676938	      0.04750286	      0.76969117	      0.04557632	      0.62408584	      0.06969527	      0.62136487	      0.07743470	      0.22123517	      0.08747723	     -0.01780893	      0.04646954	     -0.01780893	      0.07924345	     -0.01780893	      0.06066849	     -0.01780893	      0.02207317	     -0.01780893	      0.12238178	     -0.01780893	      0.45556126	     -0.01780893	      0.05828642	     -0.01780893	      0.13391495	     -0.01780893	      0.07307389	     -0.01780893	      0.24301553	     -0.01780893	      0.06638073	     -0.01780893	      0.06554424	     -0.01780893	      0.05770037	     -0.01780893	      0.11895704	     -0.01780893	      0.11276383	     -0.01780893	      0.04385542	     -0.01780893	      0.02477863	     -0.01780893	      0.02332641	     -0.01780893	      0.18252185	     -0.01780893	      0.13945923	     -0.01780893	      0.06773757	     -0.01780893	      0.04190348	     -0.01780893	      0.08593352	     -0.01780893	      0.03561975	     -0.01780893	      0.03422549	     -0.01780893	      0.04262073	     -0.01780893	      0.07211219	     -0.01780893	      0.05030460	     -0.01780893	      0.05155965	     -0.01780893	      0.07464108	     -0.01780893	      0.08888359	     -0.01780893	      0.09641128	      0.00216556	      0.12207986	      0.10202395	      0.12310018	     -0.01780893	      0.09466135	      0.07732991	      0.09500338	     -0.01780893	      0.12743597	      0.08584737	      0.12884478
      0.33603191	     20.00000000	      0.00000000	     -0.00000000	     -0.00000000	      0.00000000	      0.00000000	      0.25000000	      0.00000000	     -8.51740758	     66.54922077	     -0.66406667	   -288.82259173	      0.30456466	   -248.50077057	      0.04960169	     -0.44046003	      1.12585235	     -2.34249861	     -0.00201848	      0.09439575	     16.88542280	    803.13166676	     -1.32777063	    208.78701888	     -2.49650577	   -128.79588593	    -25.52000501	  -1656.41953113	     20.59382020	    875.69484340	      3.48451604	    680.52776931	     -0.00000000	     -0.00000000	    -19.99999998	      0.00000000	     10.00000028	      0.00000000	      4.99999985	      0.00000000	   -119.99999986	     -0.00000000	     11.49999977	     -0.00000000	     -0.03000064	      0.00000000	      0.00000000	      0.00000000	     -4.34368689	   -152.13769159	      0.92854107	    363.18568064	      0.87781598	    292.15982273	      0.25592585	      0.04614580	      0.16360830	      0.08276882	      0.17686978	      0.06461850	     -0.01780219	      0.09757515	     -0.01605378	      0.16076705	     -0.01184538	      0.45072662	      0.03369042	      0.08008820	      0.02149529	      0.10087839	      0.00361012	      0.06517522	     -0.01730165	      0.30685815	      0.12950724	      0.08566514	      0.13307418	      0.09517179	      0.14710457	      0.10998758	      0.01045436	      0.09655155	      0.00989085	      0.09087469	     -0.01782200	      0.04538423	     -0.01768455	      0.02409300	      0.15418694	      0.02255285	      0.20561758	      0.10471673	      0.31425466	      0.08384555	      0.04403644	      0.09724726	      0.05120824	      0.07001212	      0.22293438	      0.08931303	      0.21432133	      0.03328291	      0.21198715	      0.02913476	      0.23434741	      0.03830946	      0.21512155	      0.06397345	      0.75983526	      0.04750792	      0.77316047	      0.04557723	      0.62399826	      0.06968634	      0.62128740	      0.07742471	      0.22119041	      0.08746086	     -0.01782200	      0.04646954	     -0.01782200	      0.07924345	     -0.01782200	      0.06066849	     -0.01782200	      0.02207317	     -0.01782200	      0.12238178	     -0.01782200	      0.45556126	     -0.01782200	      0.05828642	     -0.01782200	      0.13391495	     -0.01782200	      0.07307389	     -0.01782200	      0.24301553	     -0.01782200	      0.06638073	     -0.01782200	      0.06554424	     -0.01782200	      0.05770037	     -0.01782200	      0.11895704	     -0.01782200	      0.11276383	     -0.01782200	      0.04385542	     -0.01782200	      0.02477863	     -0.01782200	      0.02332641	     -0.01782200	      0.18252185	     -0.01782200	      0.13945923	     -0.01782200	      0.06773757	     -0.01782200	      0.04190349	     -0.01782200	      0.08593352	     -0.01782200	      0.03561975	     -0.01782200	      0.03422550	     -0.01782200	      0.04262075	     -0.01782200	      0.07211219	     -0.01782200	      0.05030460	     -0.01782200	      0.05155965	     -0.01782200	      0.07464108	     -0.01782200	      0.08888359	     -0.01782200	      0.09641128	      0.00215249	      0.12206133	      0.10472478	      0.12313516	     -0.01782200	      0.09463522	      0.07992020	      0.09500217	     -0.01782200	      0.12736846	      0.08862652	      0.12884426
      0.33613337	     20.00000000	      0.00000000	     -0.00000000	     -0.00000000	      0.00000000	      0.00000000	      0.25000000	      0.00000000	     -8.51062964	     67.05178121	     -0.69344890	   -290.31924347	      0.27929286	   -249.61929380	      0.04955687	     -0.44291128	      1.12561501	     -2.33596364	     -0.00200892	      0.09412224	     16.96712902	    807.33713134	     -1.30653945	    209.69152158	     -2.50939663	   -125.33233514	    -25.68847098	  -1664.15236261	     20.68222480	    866.85091780	      3.55348819	    678.99608933	     -0.00000000	     -0.00000000	    -19.99999998	      0.00000000	     10.00000028	      0.00000000	      4.99999985	      0.00000000	   -119.99999986	     -0.00000000	     11.49999977	     -0.00000000	     -0.03000064	      0.00000000	      0.00000000	      0.00000000	     -4.35919252	   -153.49259267	      0.96548297	    364.96151848	      0.90753427	    293.60416247	      0.25982815	      0.04617357	      0.16781263	      0.08280817	      0.18267336	      0.06465302	     -0.01781525	      0.09756545	     -0.01606684	      0.16072185	     -0.01185844	      0.45062592	      0.03568389	      0.08008669	      0.02146629	      0.10087696	      0.00359706	      0.06514909	     -0.01731471	      0.30676619	      0.13355021	      0.08569449	      0.13734555	      0.09521054	      0.15196026	      0.10999477	      0.01044070	      0.09652539	      0.00987778	      0.09084857	     -0.01783506	      0.04537012	     -0.01769761	      0.02408545	      0.16128304	      0.02254728	      0.21052228	      0.10470898	      0.32178837	      0.08394954	      0.04397326	      0.09724162	      0.05113338	      0.07000852	      0.22691019	      0.08931039	      0.21429152	      0.03328275	      0.21196230	      0.02913466	      0.23462727	      0.03830954	      0.21509003	      0.06394729	      0.76285932	      0.04751322	      0.77657724	      0.04557817	      0.62391101	      0.06967695	      0.62121023	      0.07741433	      0.22114575	      0.08744399	     -0.01783506	      0.04646954	     -0.01783506	      0.07924345	     -0.01783506	      0.06066849	     -0.01783506	      0.02207317	     -0.01783506	      0.12238178	     -0.01783506	      0.45556126	     -0.01783506	      0.05828642	     -0.01783506	      0.13391495	     -0.01783506	      0.07307389	     -0.01783506	      0.24301553	     -0.01783506	      0.06638073	     -0.01783506	      0.06554424	     -0.01783506	      0.05770037	     -0.01783506	      0.11895704	     -0.01783506	      0.11276383	     -0.01783506	      0.04385542	     -0.01783506	      0.02477863	     -0.01783506	      0.02332641	     -0.01783506	      0.18252185	     -0.01783506	      0.13945923	     -0.01783506	      0.06773757	     -0.01783506	      0.04190349	     -0.01783506	      0.08593352	     -0.01783506	      0.03561975	     -0.01783506	      0.03422551	     -0.01783506	      0.04262076	     -0.01783506	      0.07211219	     -0.01783506	      0.05030460	     -0.01783506	      0.05155965	     -0.01783506	      0.07464108	     -0.01783506	      0.08888359	     -0.01783506	      0.09641128	      0.00213943	      0.12204269	      0.10739238	      0.12317057	     -0.01783506	      0.09460910	      0.08246585	      0.09500113	     -0.01783506	      0.12730039	      0.09135778	      0.12884396
